<svg xmlns="http://www.w3.org/2000/svg" xmlns:xlink="http://www.w3.org/1999/xlink" width="48" height="48" viewBox="0 0 48 48" fill="none">
<path     fill="#FFFFFF" fill-opacity="0" d="M0 48L48 48L48 0L0 0L0 48Z">
</path>
<g >
<path     fill="#35495E"  d="M20.72 20.336L20.72 10.736L24.56 10.736C28.64 10.736 30.848 11.84 30.848 15.2C30.848 18.56 28.64 20.336 24.56 20.336L20.72 20.336ZM31.424 39.68L41.024 39.68L33.056 25.52C36.752 23.792 39.2 20.432 39.2 15.2C39.2 6.56 32.864 3.92 25.232 3.92L12.128 3.92L12.128 39.68L20.72 39.68L20.72 27.104L24.848 27.104L31.424 39.68Z">
</path>
</g>
<g >
<path     fill="#42B883"  d="M15.72 25.336L15.72 15.736L19.56 15.736C23.64 15.736 25.848 16.84 25.848 20.2C25.848 23.56 23.64 25.336 19.56 25.336L15.72 25.336ZM26.424 44.68L36.024 44.68L28.056 30.52C31.752 28.792 34.2 25.432 34.2 20.2C34.2 11.56 27.864 8.92 20.232 8.92L7.128 8.92L7.128 44.68L15.72 44.68L15.72 32.104L19.848 32.104L26.424 44.68Z">
</path>
</g>
</svg>
