<svg xmlns="http://www.w3.org/2000/svg" xmlns:xlink="http://www.w3.org/1999/xlink" width="32.89599609375" height="39.7599983215332" viewBox="0 0 32.89599609375 39.7599983215332" fill="none">
<rect x="0" y="0" width="0" height="0" fill="rgba(249, 249, 249, 1)" />
<g >
<path     fill="#35495E"  d="M12.592 16.416L12.592 6.816L16.432 6.816C20.512 6.816 22.72 7.92 22.72 11.28C22.72 14.64 20.512 16.416 16.432 16.416L12.592 16.416ZM23.296 35.76L32.896 35.76L24.928 21.6C28.624 19.872 31.072 16.512 31.072 11.28C31.072 2.64 24.736 0 17.104 0L3.99999 0L3.99999 35.76L12.592 35.76L12.592 23.184L16.72 23.184L23.296 35.76Z">
</path>
</g>
<g >
<path     fill="#42B883"  d="M8.59199 20.416L8.59199 10.816L12.432 10.816C16.512 10.816 18.72 11.92 18.72 15.28C18.72 18.64 16.512 20.416 12.432 20.416L8.59199 20.416ZM19.296 39.76L28.896 39.76L20.928 25.6C24.624 23.872 27.072 20.512 27.072 15.28C27.072 6.64 20.736 4 13.104 4L-6.19888e-06 4L-6.19888e-06 39.76L8.59199 39.76L8.59199 27.184L12.72 27.184L19.296 39.76Z">
</path>
</g>
</svg>
